<svg width="41" height="41" viewBox="0 0 41 41" fill="none" xmlns="http://www.w3.org/2000/svg">
<path d="M22.7197 14.0678L20.8558 15.8738L18.992 14.0678C17.0376 12.1741 13.9025 12.2787 12.0786 14.2984C10.3089 16.2581 10.0652 19.1936 11.6678 21.2923C11.8647 21.5502 12.0583 21.7972 12.2426 22.0232C13.4091 23.4542 15.9541 25.9531 17.2292 27.2942C18.1713 28.285 19.0181 29.1113 19.6561 29.7132C20.3298 30.3488 21.3698 30.335 22.0448 29.7007C23.2211 28.5954 25.025 26.8736 26.2957 25.5372C27.5709 24.1961 28.3026 23.4542 29.469 22.0232C29.6533 21.7972 29.8469 21.5502 30.0439 21.2923C31.6464 19.1936 31.4028 16.2581 29.633 14.2984C27.8092 12.2787 24.674 12.1741 22.7197 14.0678Z" stroke="#898989" stroke-width="2.02054" stroke-linecap="round" stroke-linejoin="round"/>
</svg>
