<svg width="29" height="30" viewBox="0 0 29 30" fill="none" xmlns="http://www.w3.org/2000/svg">
<path d="M4.99622 8.06491V8.06491C6.48228 8.06491 7.87168 8.8016 8.70554 10.0317L9.49167 11.1913L10.5514 12.7545M22.5381 20.5704H17.9049C16.6627 20.5704 15.47 20.0841 14.582 19.2155L13.7085 18.3611M22.5381 20.5704L19.2526 23.9053M22.5381 20.5704L19.2526 17.2356" stroke="#898989" stroke-width="1.90085" stroke-linecap="round" stroke-linejoin="round"/>
<path d="M4.99622 22.4799V22.4799C6.48596 22.4799 7.88259 21.7552 8.74032 20.5372L14.5475 12.2906C15.4376 11.0266 16.887 10.2745 18.4329 10.2745H22.538M22.538 10.2745L19.2526 6.9397M22.538 10.2745L19.2526 13.6094" stroke="#898989" stroke-width="1.90085" stroke-linecap="round" stroke-linejoin="round"/>
</svg>
