<svg width="24" height="24" viewBox="0 0 24 24" fill="none" xmlns="http://www.w3.org/2000/svg">
<g clip-path="url(#clip0_2004_6365)">
<path d="M4.88708 15.79C2.03095 14.362 1.94174 10.3685 4.61951 8.78027L4.88708 8.63379L13.5306 4.3125C13.9738 4.09093 14.4952 4.41286 14.4955 4.9082L14.4955 19.5156C14.4952 19.98 14.037 20.2919 13.6146 20.1465L13.5306 20.1113L4.88708 15.79Z" stroke="#898989" stroke-width="2"/>
<path d="M18.829 17.2119C19.6098 16.999 20.3318 16.5265 20.9071 15.8381C21.7108 14.8764 22.1623 13.572 22.1623 12.2119C22.1623 10.8518 21.7108 9.54745 20.9071 8.58572C20.3318 7.89734 19.6098 7.42487 18.829 7.21191" stroke="#898989" stroke-width="1.66667" stroke-linecap="round"/>
<path d="M17.9959 11.7057C17.9959 11.525 18.1479 11.3728 18.3148 11.4419C18.4159 11.4838 18.5078 11.5452 18.5852 11.6226C18.6626 11.7 18.724 11.7918 18.7658 11.8929C18.8077 11.994 18.8293 12.1024 18.8293 12.2118C18.8293 12.3213 18.8077 12.4296 18.7658 12.5307C18.724 12.6318 18.6626 12.7237 18.5852 12.8011C18.5078 12.8785 18.4159 12.9399 18.3148 12.9817C18.1479 13.0509 17.9959 12.8987 17.9959 12.7179L17.9959 12.2118L17.9959 11.7057Z" fill="#898989" stroke="#898989" stroke-width="0.833333"/>
</g>
<defs>
<clipPath id="clip0_2004_6365">
<rect width="23.3333" height="23.3333" fill="white" transform="translate(0.495605 0.54541)"/>
</clipPath>
</defs>
</svg>
