<svg width="32" height="28" viewBox="0 0 32 28" fill="none" xmlns="http://www.w3.org/2000/svg">
<g filter="url(#filter0_d_2007_401)">
<path d="M18.0692 2.38947L16.2054 4.19541L14.3415 2.38947C12.3872 0.495796 9.25203 0.600352 7.42817 2.62003C5.65841 4.5798 5.41476 7.51521 7.01732 9.61392C7.21426 9.87182 7.40789 10.1188 7.59217 10.3449C8.75861 11.7758 11.3036 14.2748 12.5788 15.6159C13.5209 16.6067 14.3677 17.433 15.0057 18.0349C15.6794 18.6705 16.7193 18.6566 17.3943 18.0224C18.5707 16.917 20.3746 15.1953 21.6453 13.8589C22.9204 12.5178 23.6521 11.7758 24.8186 10.3449C25.0028 10.1188 25.1965 9.87182 25.3934 9.61392C26.996 7.51521 26.7523 4.5798 24.9826 2.62003C23.1587 0.600352 20.0236 0.495794 18.0692 2.38947Z" stroke="#898989" stroke-width="2.02054" stroke-linecap="round" stroke-linejoin="round" shape-rendering="crispEdges"/>
</g>
<defs>
<filter id="filter0_d_2007_401" x="0.935608" y="0.024292" width="30.5395" height="27.4908" filterUnits="userSpaceOnUse" color-interpolation-filters="sRGB">
<feFlood flood-opacity="0" result="BackgroundImageFix"/>
<feColorMatrix in="SourceAlpha" type="matrix" values="0 0 0 0 0 0 0 0 0 0 0 0 0 0 0 0 0 0 127 0" result="hardAlpha"/>
<feOffset dy="4"/>
<feGaussianBlur stdDeviation="2"/>
<feComposite in2="hardAlpha" operator="out"/>
<feColorMatrix type="matrix" values="0 0 0 0 0 0 0 0 0 0 0 0 0 0 0 0 0 0 0.25 0"/>
<feBlend mode="normal" in2="BackgroundImageFix" result="effect1_dropShadow_2007_401"/>
<feBlend mode="normal" in="SourceGraphic" in2="effect1_dropShadow_2007_401" result="shape"/>
</filter>
</defs>
</svg>
