<svg width="36" height="26" viewBox="0 0 36 26" fill="none" xmlns="http://www.w3.org/2000/svg">
<path d="M27.2216 7.10817C27.2216 8.96803 25.7139 10.4757 23.854 10.4757C21.9942 10.4757 20.4865 8.96803 20.4865 7.10817C20.4865 5.24831 21.9942 3.7406 23.854 3.7406C25.7139 3.7406 27.2216 5.24831 27.2216 7.10817Z" stroke="#898989" stroke-width="2.02054"/>
<path d="M16.9347 16.2112L17.6845 15.7114C19.5115 14.4934 21.6582 13.8434 23.854 13.8434C26.0499 13.8434 28.1966 14.4934 30.0236 15.7114L30.7734 16.2112C31.7102 16.8358 32.273 17.8873 32.273 19.0132V20.6908C32.273 21.5587 31.5694 22.2623 30.7014 22.2623H23.854H17.0067C16.1387 22.2623 15.4351 21.5587 15.4351 20.6908V19.0132C15.4351 17.8873 15.9978 16.8358 16.9347 16.2112Z" stroke="#898989" stroke-width="2.02054" stroke-linecap="round" stroke-linejoin="round"/>
<path d="M15.8027 7.10817C15.8027 8.96803 14.295 10.4757 12.4352 10.4757C10.5753 10.4757 9.0676 8.96803 9.0676 7.10817C9.0676 5.24831 10.5753 3.7406 12.4352 3.7406C14.295 3.7406 15.8027 5.24831 15.8027 7.10817Z" stroke="#898989" stroke-width="2.02054"/>
<path d="M12.4352 13.8434V13.8434C10.2393 13.8434 8.09264 14.4934 6.2656 15.7114L5.51581 16.2112C4.57896 16.8358 4.01624 17.8873 4.01624 19.0132V20.6908C4.01624 21.5587 4.71983 22.2623 5.58777 22.2623H11.6487" stroke="#898989" stroke-width="2.02054" stroke-linecap="round" stroke-linejoin="round"/>
</svg>
