<svg width="21" height="24" viewBox="0 0 21 24" fill="none" xmlns="http://www.w3.org/2000/svg">
<path d="M15.1446 4.25905C15.3533 4.70258 15.8821 4.89292 16.3256 4.68419C16.7692 4.47545 16.9595 3.94669 16.7508 3.50316L15.1446 4.25905ZM4.2156 7.98169C5.09171 7.83951 5.09177 7.83991 5.09183 7.84028C5.09185 7.84037 5.0919 7.84072 5.09193 7.8409C5.09199 7.84126 5.09203 7.84152 5.09205 7.84167C5.0921 7.84197 5.09208 7.84186 5.092 7.84134C5.09184 7.84029 5.09143 7.83761 5.09081 7.83334C5.08957 7.82481 5.08748 7.80997 5.08482 7.78924C5.07951 7.74774 5.07197 7.68288 5.06443 7.59802C5.04931 7.42793 5.03442 7.1798 5.03712 6.88024C5.04259 6.27499 5.11972 5.49185 5.3891 4.72586C5.65609 3.96668 6.10347 3.24559 6.84346 2.70922C7.58123 2.17446 8.68507 1.76868 10.3622 1.76868V-0.00646973C8.38991 -0.00646973 6.90068 0.475322 5.80167 1.27193C4.70489 2.06691 4.07179 3.12097 3.71449 4.13693C3.35959 5.14609 3.26861 6.1381 3.26205 6.8642C3.25874 7.23033 3.27685 7.53693 3.29625 7.75515C3.30596 7.86445 3.31604 7.95214 3.32405 8.01466C3.32805 8.04593 3.33154 8.07096 3.33421 8.0893C3.33555 8.09847 3.33668 8.10597 3.33757 8.11175C3.33802 8.11464 3.3384 8.1171 3.33872 8.11912C3.33888 8.12013 3.33903 8.12103 3.33915 8.12183C3.33922 8.12222 3.3393 8.12274 3.33933 8.12293C3.33941 8.12342 3.33948 8.12387 4.2156 7.98169ZM10.3622 1.76868C11.8671 1.76868 12.9089 2.09564 13.6371 2.54582C14.3632 2.99472 14.8353 3.60185 15.1446 4.25905L16.7508 3.50316C16.3193 2.58642 15.6342 1.69354 14.5706 1.03593C13.5089 0.379597 12.1284 -0.00646973 10.3622 -0.00646973V1.76868Z" fill="#898989"/>
<path d="M16.5753 8.42542H4.14923C2.67865 8.42542 1.48651 9.61756 1.48651 11.0881V20.4077C1.48651 21.8782 2.67865 23.0704 4.14923 23.0704H16.5753C18.0458 23.0704 19.238 21.8782 19.238 20.4077V11.0881C19.238 9.61756 18.0458 8.42542 16.5753 8.42542Z" stroke="#898989" stroke-width="1.77515"/>
<circle cx="10.3622" cy="15.9698" r="2.66272" stroke="#898989" stroke-width="1.77515"/>
</svg>
