<svg width="25" height="25" viewBox="0 0 25 25" fill="none" xmlns="http://www.w3.org/2000/svg">
<path d="M14.6732 1.62158H10.4404C10.1582 1.62158 9.91368 1.71325 9.70675 1.89658C9.49981 2.07991 9.37753 2.30908 9.33991 2.58408L9.00129 5.14158C8.75673 5.23325 8.52647 5.34325 8.31051 5.47158C8.09379 5.59991 7.88196 5.73741 7.67503 5.88408L5.22004 4.89408C4.95667 4.80242 4.6933 4.79325 4.42993 4.86658C4.16656 4.93992 3.95962 5.09575 3.80913 5.33408L1.72097 8.88158C1.57047 9.11992 1.52344 9.37658 1.57988 9.65158C1.63632 9.92658 1.77741 10.1466 2.00316 10.3116L4.11953 11.8791C4.10071 12.0074 4.09131 12.1313 4.09131 12.2509V12.9934C4.09131 13.1122 4.10071 13.2357 4.11953 13.3641L2.00316 14.9316C1.77741 15.0966 1.63632 15.3166 1.57988 15.5916C1.52344 15.8666 1.57047 16.1232 1.72097 16.3616L3.80913 19.9091C3.94081 20.1657 4.14285 20.3263 4.41525 20.3909C4.68841 20.4547 4.95667 20.4407 5.22004 20.3491L7.67503 19.3591C7.88196 19.5057 8.0983 19.6432 8.32405 19.7716C8.5498 19.8999 8.77554 20.0099 9.00129 20.1016L9.33991 22.6591C9.37753 22.9341 9.49981 23.1632 9.70675 23.3466C9.91368 23.5299 10.1582 23.6216 10.4404 23.6216H14.6732C14.9553 23.6216 15.1999 23.5299 15.4068 23.3466C15.6138 23.1632 15.7361 22.9341 15.7737 22.6591L16.1123 20.1016C16.3569 20.0099 16.5875 19.8999 16.8042 19.7716C17.0202 19.6432 17.2316 19.5057 17.4386 19.3591L19.8935 20.3491C20.1569 20.4407 20.4203 20.4499 20.6837 20.3766C20.947 20.3032 21.154 20.1474 21.3045 19.9091L23.3926 16.3616C23.5431 16.1232 23.5901 15.8666 23.5337 15.5916C23.4773 15.3166 23.3362 15.0966 23.1104 14.9316L20.9941 13.3641C21.0129 13.2357 21.0223 13.1122 21.0223 12.9934V12.2509C21.0223 12.1313 21.0035 12.0074 20.9658 11.8791L23.0822 10.3116C23.308 10.1466 23.4491 9.92658 23.5055 9.65158C23.5619 9.37658 23.5149 9.11992 23.3644 8.88158L21.2762 5.36158C21.1257 5.12325 20.9143 4.96265 20.6419 4.87978C20.3687 4.79765 20.1005 4.80242 19.8371 4.89408L17.4386 5.88408C17.2316 5.73741 17.0153 5.59991 16.7895 5.47158C16.5638 5.34325 16.338 5.23325 16.1123 5.14158L15.7737 2.58408C15.7361 2.30908 15.6138 2.07991 15.4068 1.89658C15.1999 1.71325 14.9553 1.62158 14.6732 1.62158Z" stroke="#898989" stroke-width="2"/>
<circle cx="3.34783" cy="3.34783" r="3.34783" transform="matrix(1 0 0 -1 9.20895 15.9694)" stroke="#898989" stroke-width="2"/>
</svg>
