<svg width="18" height="20" viewBox="0 0 18 20" fill="none" xmlns="http://www.w3.org/2000/svg">
<path d="M16.4666 15.8133C14.7299 15.7937 13.0461 15.2127 11.6669 14.1571C10.2877 13.1015 9.28698 11.628 8.8144 9.95665C8.34181 8.28534 8.42267 6.50598 9.0449 4.88442C9.66714 3.26286 10.7973 1.88616 12.2666 0.960001C11.5242 0.767145 10.7604 0.668591 9.99331 0.666668C7.51795 0.666668 5.14398 1.65 3.39364 3.40034C1.6433 5.15068 0.659973 7.52465 0.659973 10C0.659973 12.4754 1.6433 14.8493 3.39364 16.5997C5.14398 18.35 7.51795 19.3333 9.99331 19.3333C11.3956 19.3321 12.7791 19.0107 14.0384 18.3938C15.2977 17.7769 16.3995 16.8806 17.26 15.7733C16.9964 15.7998 16.7316 15.8131 16.4666 15.8133Z" fill="#0C0C0C"/>
</svg>
