<svg width="30" height="30" viewBox="0 0 30 30" fill="none" xmlns="http://www.w3.org/2000/svg">
<g filter="url(#filter0_d_2004_6476)">
<path d="M16.986 3.07896L15.4682 1.56112M16.986 3.07896L10.2856 9.77935C10.1625 9.90246 10.0017 9.98077 9.82889 10.0018L7.07559 10.3365C6.43099 10.4148 6.15969 11.2012 6.61884 11.6604L10.5474 15.5889M16.986 3.07896L23.0574 9.15029M24.5752 10.6681L23.0574 9.15029M23.0574 9.15029L16.357 15.8507C16.2339 15.9738 16.1556 16.1346 16.1345 16.3074L15.7998 19.0607C15.7215 19.7053 14.9351 19.9766 14.476 19.5175L10.5474 15.5889M10.5474 15.5889L5.3796 20.7567" stroke="#1ED760" stroke-width="2" stroke-linecap="round" stroke-linejoin="round" shape-rendering="crispEdges"/>
</g>
<defs>
<filter id="filter0_d_2004_6476" x="0.379395" y="0.561157" width="29.1958" height="29.1956" filterUnits="userSpaceOnUse" color-interpolation-filters="sRGB">
<feFlood flood-opacity="0" result="BackgroundImageFix"/>
<feColorMatrix in="SourceAlpha" type="matrix" values="0 0 0 0 0 0 0 0 0 0 0 0 0 0 0 0 0 0 127 0" result="hardAlpha"/>
<feOffset dy="4"/>
<feGaussianBlur stdDeviation="2"/>
<feComposite in2="hardAlpha" operator="out"/>
<feColorMatrix type="matrix" values="0 0 0 0 0 0 0 0 0 0 0 0 0 0 0 0 0 0 0.25 0"/>
<feBlend mode="normal" in2="BackgroundImageFix" result="effect1_dropShadow_2004_6476"/>
<feBlend mode="normal" in="SourceGraphic" in2="effect1_dropShadow_2004_6476" result="shape"/>
</filter>
</defs>
</svg>
